<svg version="1.1" viewBox="0.0 0.0 960.0 720.0" fill="none" stroke="none" stroke-linecap="square" stroke-miterlimit="10" xmlns:xlink="http://www.w3.org/1999/xlink" xmlns="http://www.w3.org/2000/svg"><clipPath id="g126e94c48ce_0_0.0"><path d="m0 0l960.0 0l0 720.0l-960.0 0l0 -720.0z" clip-rule="nonzero"/></clipPath><g clip-path="url(#g126e94c48ce_0_0.0)"><path fill="#ffffff" d="m0 0l960.0 0l0 720.0l-960.0 0z" fill-rule="evenodd"/><path fill="#000000" fill-opacity="0.0" d="m189.48557 125.12467l579.9685 0l0 579.9685l-579.9685 0z" fill-rule="evenodd"/><path stroke="#000000" stroke-width="3.0" stroke-linejoin="round" stroke-linecap="butt" d="m189.48557 125.12467l579.9685 0l0 579.9685l-579.9685 0z" fill-rule="evenodd"/><path fill="#d9ead3" d="m189.48793 415.10876l0 0c0 -160.15387 129.83037 -289.98425 289.98425 -289.98425l0 0c76.90863 0 150.66724 30.551834 205.04987 84.93442c54.38257 54.3826 84.93439 128.14124 84.93439 205.04984l0 0c0 160.15387 -129.83038 289.98425 -289.98425 289.98425l0 0c-160.15387 0 -289.98425 -129.83038 -289.98425 -289.98425z" fill-rule="evenodd"/><path stroke="#595959" stroke-width="1.0" stroke-linejoin="round" stroke-linecap="butt" d="m189.48793 415.10876l0 0c0 -160.15387 129.83037 -289.98425 289.98425 -289.98425l0 0c76.90863 0 150.66724 30.551834 205.04987 84.93442c54.38257 54.3826 84.93439 128.14124 84.93439 205.04984l0 0c0 160.15387 -129.83038 289.98425 -289.98425 289.98425l0 0c-160.15387 0 -289.98425 -129.83038 -289.98425 -289.98425z" fill-rule="evenodd"/><path fill="#000000" fill-opacity="0.0" d="m488.89996 401.80698l195.62207 -191.74805" fill-rule="evenodd"/><path stroke="#000000" stroke-width="3.0" stroke-linejoin="round" stroke-linecap="butt" d="m488.89996 401.80698l182.76746 -179.14804" fill-rule="evenodd"/><path fill="#000000" stroke="#000000" stroke-width="3.0" stroke-linecap="butt" d="m675.1361 226.19765l6.2539062 -13.068726l-13.191223 5.991287z" fill-rule="evenodd"/><path fill="#000000" fill-opacity="0.0" d="m607.12134 292.83267l70.58264 0l0 100.188965l-70.58264 0z" fill-rule="evenodd"/><path fill="#000000" d="m621.3557 365.83267l0 -47.71875l21.15625 0q6.390625 0 9.703125 1.296875q3.328125 1.28125 5.3125 4.53125q1.984375 3.25 1.984375 7.203125q0 5.0625 -3.296875 8.546875q-3.28125 3.484375 -10.15625 4.4375q2.515625 1.203125 3.8125 2.375q2.765625 2.53125 5.234375 6.34375l8.3125 12.984375l-7.953125 0l-6.3125 -9.921875q-2.765625 -4.296875 -4.5625 -6.578125q-1.78125 -2.28125 -3.203125 -3.1875q-1.40625 -0.921875 -2.875 -1.265625q-1.078125 -0.234375 -3.515625 -0.234375l-7.328125 0l0 21.1875l-6.3125 0zm6.3125 -26.65625l13.578125 0q4.328125 0 6.765625 -0.890625q2.453125 -0.90625 3.71875 -2.875q1.265625 -1.96875 1.265625 -4.265625q0 -3.390625 -2.453125 -5.5625q-2.453125 -2.1875 -7.765625 -2.1875l-15.109375 0l0 15.78125z" fill-rule="nonzero"/><path fill="#000000" fill-opacity="0.0" d="m191.74278 102.94357l578.77167 0" fill-rule="evenodd"/><path stroke="#000000" stroke-width="3.0" stroke-linejoin="round" stroke-linecap="butt" d="m209.74278 102.94357l542.77167 0" fill-rule="evenodd"/><path fill="#000000" stroke="#000000" stroke-width="3.0" stroke-linecap="butt" d="m209.74278 97.98837l-13.614288 4.9552l13.614288 4.9551926z" fill-rule="evenodd"/><path fill="#000000" stroke="#000000" stroke-width="3.0" stroke-linecap="butt" d="m752.51447 107.898766l13.614258 -4.9551926l-13.614258 -4.9552z" fill-rule="evenodd"/><path fill="#000000" fill-opacity="0.0" d="m425.50623 14.906824l111.24408 0l0 100.18898l-111.24408 0z" fill-rule="evenodd"/><path fill="#000000" d="m468.06873 82.28182l0 5.625l-31.546875 0q-0.0625 -2.109375 0.6875 -4.0625q1.203125 -3.234375 3.84375 -6.359375q2.65625 -3.125 7.671875 -7.21875q7.78125 -6.374996 10.515625 -10.093746q2.734375 -3.734375 2.734375 -7.0625q0 -3.484375 -2.5 -5.875q-2.484375 -2.390625 -6.484375 -2.390625q-4.234375 0 -6.78125 2.546875q-2.53125 2.53125 -2.5625 7.03125l-6.015625 -0.625q0.625 -6.734375 4.65625 -10.265625q4.03125 -3.53125 10.828125 -3.53125q6.875 0 10.875 3.8125q4.0 3.796875 4.0 9.4375q0 2.859375 -1.171875 5.625q-1.171875 2.765625 -3.890625 5.828121q-2.703125 3.0625 -9.03125 8.390625q-5.265625 4.4375 -6.765625 6.015625q-1.5 1.578125 -2.46875 3.171875l23.40625 0zm8.742889 5.625l0 -47.718746l21.15625 0q6.390625 0 9.703125 1.296875q3.328125 1.28125 5.3125305 4.53125q1.984375 3.25 1.984375 7.203125q0 5.0625 -3.2969055 8.546875q-3.28125 3.4843712 -10.15625 4.437496q2.515625 1.203125 3.8125 2.375q2.765625 2.53125 5.234375 6.34375l8.3125305 12.984375l-7.9531555 0l-6.3125 -9.921875q-2.765625 -4.296875 -4.5625 -6.578125q-1.78125 -2.28125 -3.203125 -3.1875q-1.40625 -0.921875 -2.875 -1.265625q-1.078125 -0.234375 -3.515625 -0.234375l-7.328125 0l0 21.1875l-6.3125 0zm6.3125 -26.656246l13.578125 0q4.328125 0 6.765625 -0.890625q2.453125 -0.90625 3.71875 -2.875q1.265625 -1.96875 1.265625 -4.265625q0 -3.390625 -2.453125 -5.5625q-2.453125 -2.1875 -7.765625 -2.1875l-15.109375 0l0 15.78125z" fill-rule="nonzero"/></g></svg>