<svg version="1.1" viewBox="0.0 0.0 960.0 720.0" fill="none" stroke="none" stroke-linecap="square" stroke-miterlimit="10" xmlns:xlink="http://www.w3.org/1999/xlink" xmlns="http://www.w3.org/2000/svg"><clipPath id="g13918a07104_0_0.0"><path d="m0 0l960.0 0l0 720.0l-960.0 0l0 -720.0z" clip-rule="nonzero"/></clipPath><g clip-path="url(#g13918a07104_0_0.0)"><path fill="#ffffff" d="m0 0l960.0 0l0 720.0l-960.0 0z" fill-rule="evenodd"/><path fill="#000000" fill-opacity="0.0" d="m167.7441 92.698166l579.9685 0l0 579.9685l-579.9685 0z" fill-rule="evenodd"/><path stroke="#000000" stroke-width="3.0" stroke-linejoin="round" stroke-linecap="butt" d="m167.7441 92.698166l579.9685 0l0 579.9685l-579.9685 0z" fill-rule="evenodd"/><path fill="#d9ead3" d="m167.74646 382.68225l0 0c0 -160.15387 129.83038 -289.98425 289.98425 -289.98425l0 0c76.90863 0 150.66724 30.551826 205.0498 84.934425c54.38263 54.3826 84.93445 128.14122 84.93445 205.04982l0 0c0 160.15387 -129.83038 289.98425 -289.98425 289.98425l0 0c-160.15387 0 -289.98425 -129.83038 -289.98425 -289.98425z" fill-rule="evenodd"/><path stroke="#595959" stroke-width="1.0" stroke-linejoin="round" stroke-linecap="butt" d="m167.74646 382.68225l0 0c0 -160.15387 129.83038 -289.98425 289.98425 -289.98425l0 0c76.90863 0 150.66724 30.551826 205.0498 84.934425c54.38263 54.3826 84.93445 128.14122 84.93445 205.04982l0 0c0 160.15387 -129.83038 289.98425 -289.98425 289.98425l0 0c-160.15387 0 -289.98425 -129.83038 -289.98425 -289.98425z" fill-rule="evenodd"/><path fill="#000000" fill-opacity="0.0" d="m457.72806 393.38046l0 -346.04724" fill-rule="evenodd"/><path stroke="#000000" stroke-width="3.0" stroke-linejoin="round" stroke-linecap="butt" d="m457.72806 393.38046l0 -328.04724" fill-rule="evenodd"/><path fill="#000000" stroke="#000000" stroke-width="3.0" stroke-linecap="butt" d="m462.68326 65.33321l-4.9552 -13.614292l-4.9552 13.614292z" fill-rule="evenodd"/><path fill="#000000" fill-opacity="0.0" d="m441.32648 382.6849l350.92914 0" fill-rule="evenodd"/><path stroke="#000000" stroke-width="3.0" stroke-linejoin="round" stroke-linecap="butt" d="m441.32648 382.6849l332.92908 0" fill-rule="evenodd"/><path fill="#000000" stroke="#000000" stroke-width="3.0" stroke-linecap="butt" d="m774.25555 387.6401l13.614319 -4.9552l-13.614319 -4.9552z" fill-rule="evenodd"/><path fill="#000000" d="m305.62598 233.81496l0 0c0 -5.1488495 4.1739807 -9.32283 9.322845 -9.32283l0 0c2.4725647 0 4.843872 0.9822235 6.592224 2.7305908c1.7483826 1.7483673 2.7306213 4.1196747 2.7306213 6.5922394l0 0c0 5.1488647 -4.1739807 9.322845 -9.322845 9.322845l0 0c-5.1488647 0 -9.322845 -4.1739807 -9.322845 -9.322845z" fill-rule="evenodd"/><path stroke="#000000" stroke-width="1.0" stroke-linejoin="round" stroke-linecap="butt" d="m305.62598 233.81496l0 0c0 -5.1488495 4.1739807 -9.32283 9.322845 -9.32283l0 0c2.4725647 0 4.843872 0.9822235 6.592224 2.7305908c1.7483826 1.7483673 2.7306213 4.1196747 2.7306213 6.5922394l0 0c0 5.1488647 -4.1739807 9.322845 -9.322845 9.322845l0 0c-5.1488647 0 -9.322845 -4.1739807 -9.322845 -9.322845z" fill-rule="evenodd"/><path fill="#000000" fill-opacity="0.0" d="m241.28215 231.28477l135.71654 0l0 74.3307l-135.71654 0z" fill-rule="evenodd"/><path fill="#000000" d="m263.84467 293.35165l-4.265625 0q-3.390625 -5.125 -5.1562653 -10.625q-1.765625 -5.515625 -1.765625 -10.671875q0 -6.40625 2.1875 -12.109375q1.9062653 -4.953125 4.8281403 -9.140625l4.25 0q-3.03125 6.703125 -4.171875 11.40625q-1.140625 4.703125 -1.140625 9.96875q0 3.640625 0.671875 7.453125q0.671875 3.796875 1.84375 7.21875q0.78125 2.265625 2.71875 6.5zm1.7977295 -9.546875l8.484375 -12.109375l-8.125 -11.390625l7.59375 0l4.15625 6.453125l4.375 -6.453125l7.3125 0l-7.96875 11.125l8.6875 12.375l-7.625 0l-4.78125 -7.28125l-4.828125 7.28125l-7.28125 0zm28.037476 -6.21875l6.21875 0l0 4.453125q0 2.6875 -0.46875 4.25q-0.453125 1.5625 -1.75 2.796875q-1.296875 1.25 -3.28125 1.953125l-1.21875 -2.5625q1.875 -0.625 2.671875 -1.71875q0.796875 -1.078125 0.84375 -2.953125l-3.015625 0l0 -6.21875zm22.405975 -17.28125l6.609375 0l5.625 16.6875l5.484375 -16.6875l6.453125 0l-8.3125 22.609375l-1.46875 4.09375q-0.828125 2.0625 -1.578125 3.140625q-0.734375 1.09375 -1.703125 1.765625q-0.953125 0.671875 -2.359375 1.046875q-1.40625 0.390625 -3.171875 0.390625q-1.796875 0 -3.515625 -0.390625l-0.5625 -4.859375q1.46875 0.28125 2.640625 0.28125q2.171875 0 3.203125 -1.28125q1.046875 -1.265625 1.59375 -3.234375l-8.9375 -23.5625zm26.4281 33.046875q1.828125 -3.953125 2.578125 -6.0625q0.765625 -2.09375 1.40625 -4.828125q0.640625 -2.75 0.9375 -5.21875q0.3125 -2.46875 0.3125 -5.0625q0 -5.265625 -1.125 -9.96875q-1.125 -4.703125 -4.15625 -11.40625l4.21875 0q3.34375 4.765625 5.1875 10.09375q1.859375 5.328125 1.859375 10.828125q0 4.625 -1.46875 9.90625q-1.65625 5.9375 -5.453125 11.71875l-4.296875 0z" fill-rule="nonzero"/></g></svg>